<svg width="160" height="20" viewBox="0 0 160 20" fill="none" xmlns="http://www.w3.org/2000/svg">
<g clip-path="url(#clip0_13_2564)">
<path d="M82.3544 9.97095C82.3544 6.80896 82.3544 3.64474 82.3544 0.482747C82.3544 0.0466101 82.3699 0.0288086 82.7988 0.0288086C85.3209 0.0288086 87.8453 0.0288086 90.3674 0.0288086C90.8051 0.0288086 90.8229 0.0466101 90.8229 0.471621C90.8229 2.52325 90.8229 4.57709 90.8229 6.62872C90.8229 6.97807 90.8474 7.00478 91.2029 7.00478C92.8828 7.00478 94.5605 7.00478 96.2405 7.00478C96.6271 7.00478 96.6449 6.98475 96.6449 6.59757C96.6449 4.53704 96.6449 2.47429 96.6449 0.413766C96.6449 0.057736 96.6693 0.0288086 97.0182 0.0288086C99.4959 0.0288086 101.976 0.0288086 104.453 0.0288086C104.847 0.0288086 104.869 0.0532857 104.869 0.456045C104.869 6.80896 104.869 13.1619 104.869 19.5148C104.869 19.873 104.856 19.8864 104.493 19.8864C101.998 19.8864 99.5003 19.8864 97.0049 19.8864C96.6693 19.8864 96.6471 19.8641 96.6471 19.5192C96.6471 17.0048 96.6471 14.4903 96.6471 11.9758C96.6471 11.5597 96.6404 11.5531 96.2338 11.5531C94.5628 11.5531 92.8939 11.5531 91.2229 11.5531C90.8518 11.5531 90.8251 11.5775 90.8251 11.9402C90.8251 14.4547 90.8251 16.9692 90.8251 19.4836C90.8251 19.8686 90.8096 19.8842 90.4163 19.8842C87.8675 19.8842 85.3165 19.8842 82.7677 19.8842C82.3655 19.8842 82.3566 19.8753 82.3566 19.4592C82.3566 16.2972 82.3566 13.1329 82.3566 9.97095H82.3544Z" fill="black"/>
<path d="M32.4031 6.18388C32.3809 6.48206 32.2809 6.72015 32.1964 6.95825C31.2498 9.61735 29.7432 11.9271 27.8188 13.9743C26.5544 15.3205 25.1567 16.5043 23.5212 17.3877C21.5969 18.4269 19.5347 19.0477 17.3815 19.3792C16.0215 19.5884 14.6527 19.7486 13.2728 19.7219C10.2529 19.6663 7.36856 19.0432 4.75534 17.4723C2.35766 16.0326 0.74217 13.9765 0.173305 11.195C-0.364451 8.56038 0.353297 6.31517 2.3821 4.52166C3.24651 3.7562 4.2798 3.35567 5.42198 3.23996C7.13968 3.06639 8.80406 3.26443 10.3751 4.02545C11.2951 4.47048 12.0995 5.07574 12.8261 5.79225C13.6172 6.57106 14.3638 7.39438 15.2282 8.09532C16.7393 9.32362 18.4992 9.9934 20.3747 10.3984C22.5102 10.859 24.639 10.879 26.7366 10.1981C28.941 9.48161 30.7543 8.19545 32.1809 6.36412C32.2142 6.32184 32.2453 6.27956 32.2831 6.24173C32.2986 6.22393 32.3275 6.21948 32.4031 6.18166V6.18388Z" fill="black"/>
<path d="M153.456 19.7219C151.058 19.6507 148.954 18.8897 147.232 17.154C146.369 16.2862 145.538 15.3806 144.561 14.6329C143.001 13.4424 141.207 12.8016 139.31 12.43C137.239 12.0227 135.177 12.045 133.159 12.7259C131.026 13.4446 129.263 14.6974 127.868 16.4664C127.815 16.5332 127.764 16.6511 127.67 16.6044C127.548 16.5443 127.641 16.4286 127.666 16.3463C128.248 14.4927 129.152 12.7993 130.279 11.2261C131.846 9.03876 133.706 7.14958 136.028 5.75884C137.899 4.63734 139.945 3.97868 142.081 3.60485C143.77 3.3089 145.474 3.10196 147.192 3.17984C150.16 3.31335 152.994 3.97423 155.525 5.59862C157.878 7.1073 159.369 9.23013 159.887 12.0072C160.411 14.8154 159.044 17.7749 156.602 19.0543C155.62 19.5684 154.556 19.7263 153.454 19.7241L153.456 19.7219Z" fill="black"/>
<path d="M108.626 9.96428C108.626 6.79116 108.626 3.62026 108.626 0.447144C108.626 0.0488353 108.644 0.0288086 109.049 0.0288086C114.468 0.0288086 119.886 0.0288086 125.306 0.0288086C125.637 0.0288086 125.675 0.0644116 125.677 0.39374C125.681 1.4329 125.681 2.47207 125.677 3.51345C125.677 3.86948 125.65 3.88951 125.295 3.88951C122.719 3.88951 120.142 3.88951 117.566 3.88951C117.522 3.88951 117.477 3.88951 117.433 3.88951C117.138 3.891 116.991 4.03712 116.991 4.32787C116.991 5.10001 116.991 5.87438 116.991 6.64652C116.991 6.89574 117.112 7.02035 117.355 7.02035C119.408 7.02035 121.459 7.02035 123.513 7.02035C124.017 7.02035 124.03 7.0337 124.028 7.5455C124.024 8.74487 124.012 9.94425 124.017 11.1436C124.017 11.3973 123.908 11.4507 123.677 11.4507C121.59 11.444 119.502 11.4463 117.413 11.4463C117.131 11.4463 116.991 11.5827 116.991 11.8557C116.991 13.1352 116.991 14.4147 116.991 15.6941C116.991 15.9552 117.125 16.0858 117.393 16.0858C120.013 16.0858 122.635 16.0858 125.255 16.0858C125.657 16.0858 125.65 16.0858 125.659 16.4774C125.684 17.5344 125.69 18.5891 125.664 19.6461C125.657 19.8819 125.555 19.9287 125.355 19.9242C124.955 19.9153 124.555 19.9242 124.155 19.9242C119.179 19.9242 114.204 19.9242 109.231 19.9242C109.16 19.9242 109.089 19.9242 109.018 19.9242C108.638 19.9175 108.629 19.9109 108.629 19.5326C108.629 16.3439 108.629 13.153 108.629 9.96428H108.626Z" fill="black"/>
<path d="M62.6352 9.97562C63.7907 9.97562 64.9439 9.97562 66.0995 9.97562C66.4683 9.97562 66.475 9.98675 66.4817 10.3406C66.5283 12.677 66.4928 15.0134 66.5017 17.3499C66.5039 18.0864 66.4839 18.823 66.4861 19.5617C66.4861 19.762 66.4239 19.8488 66.2172 19.8644C64.5173 19.989 62.8174 20.0513 61.113 19.9445C59.4286 19.8377 57.7554 19.653 56.1065 19.2747C53.66 18.7162 51.3267 17.8728 49.2446 16.4353C47.8358 15.4629 46.6647 14.2613 46.0914 12.6169C45.0803 9.71527 45.5736 7.0851 47.7136 4.83544C49.2402 3.23107 51.1601 2.23642 53.2111 1.48653C55.3488 0.705486 57.5643 0.278249 59.8331 0.126937C60.4353 0.0868831 61.0374 0.0490549 61.6374 0.00232596C61.893 -0.0177007 61.9774 0.0779824 61.9752 0.336104C61.9619 1.31296 61.9619 2.29205 61.9752 3.2689C61.9796 3.54705 61.8774 3.63383 61.613 3.66276C59.4064 3.90308 57.3509 4.57064 55.551 5.90798C54.4733 6.70904 53.6644 7.70593 53.3978 9.06329C53.1022 10.5697 53.5555 11.8492 54.6066 12.9351C55.4443 13.8007 56.471 14.4037 57.5265 14.9578C57.8398 15.1225 58.162 15.2738 58.482 15.4229C58.742 15.5453 58.7909 15.5119 58.7887 15.2271C58.7887 14.6307 58.782 14.0366 58.782 13.4402C58.782 12.4278 58.782 11.4153 58.782 10.4006C58.782 9.9912 58.7975 9.97785 59.1975 9.97785C60.3441 9.97785 61.4885 9.97785 62.6352 9.97785V9.97562Z" fill="black"/>
<path d="M33.9919 9.91541C33.9919 6.73562 33.9919 3.55582 33.9919 0.376029C33.9919 0.00664767 33.9919 0.00664764 34.3607 0.00664764C37.0784 0.00664764 39.7961 0.00887283 42.5137 0.00219727C42.7626 0.00219727 42.8537 0.0645026 42.8537 0.3293C42.8471 6.74229 42.8471 13.1575 42.8537 19.5705C42.8537 19.8153 42.7782 19.8932 42.536 19.8932C39.7916 19.8865 37.0473 19.8865 34.303 19.8932C34.0585 19.8932 33.9874 19.8086 33.9874 19.5661C33.9941 16.3507 33.9919 13.1353 33.9919 9.91987V9.91541Z" fill="black"/>
<path d="M70.0393 9.95093C70.0393 6.77781 70.0393 3.60691 70.0393 0.433793C70.0393 0.0532857 70.0615 0.0288086 70.446 0.0288086C73.1103 0.0288086 75.7768 0.0288086 78.4412 0.0288086C78.7989 0.0288086 78.8256 0.0532857 78.8256 0.40264C78.8256 6.77336 78.8256 13.1441 78.8256 19.5148C78.8256 19.8708 78.8101 19.8842 78.4456 19.8842C75.7635 19.8842 73.0792 19.8842 70.3971 19.8842C70.0593 19.8842 70.0393 19.8641 70.0393 19.5192C70.0393 16.3305 70.0393 13.1396 70.0393 9.95093Z" fill="black"/>
</g>
<defs>
<clipPath id="clip0_13_2564">
<rect width="160" height="20" fill="white"/>
</clipPath>
</defs>
</svg>
